<?xml version="1.0" standalone="no"?>
<!DOCTYPE svg PUBLIC "-//W3C//DTD SVG 20010904//EN"
 "http://www.w3.org/TR/2001/REC-SVG-20010904/DTD/svg10.dtd">
<svg version="1.0" xmlns="http://www.w3.org/2000/svg"
 width="740.000000pt" height="415.000000pt" viewBox="0 0 740.000000 415.000000"
 preserveAspectRatio="xMidYMid meet">
<metadata>
Created by potrace 1.16, written by Peter Selinger 2001-2019
</metadata>
<g transform="translate(0.000000,415.000000) scale(0.100000,-0.100000)"
fill="#000000" stroke="none">
<path d="M0 2075 l0 -2075 3700 0 3700 0 0 1206 c0 801 -3 1203 -10 1199 -14
-8 -13 18 1 32 14 14 -5 53 -27 53 -8 0 -13 4 -10 9 3 5 15 7 26 4 19 -5 20 0
20 111 0 64 -2 116 -4 116 -2 0 -27 -16 -56 -35 -37 -25 -63 -35 -89 -34 l-36
0 40 13 c48 15 92 38 123 65 22 19 23 24 22 187 -2 158 -3 168 -23 185 -24 19
-51 13 -102 -25 -38 -27 -80 -46 -105 -46 -30 0 -132 -53 -163 -84 -16 -16
-22 -26 -13 -23 16 7 56 -20 56 -36 0 -5 -6 -4 -14 2 -25 21 -116 24 -237 8
-117 -16 -183 -38 -194 -65 -12 -31 13 -31 105 0 95 31 146 35 315 25 38 -2
40 0 43 28 3 23 14 37 50 60 26 16 55 40 65 52 12 16 29 23 50 23 32 -1 32 -1
11 -18 -11 -9 -37 -46 -58 -82 -40 -68 -67 -100 -86 -100 -6 0 -31 -14 -55
-30 -25 -17 -46 -26 -50 -20 -6 10 -56 34 -92 45 -14 4 -30 -2 -50 -19 l-28
-25 28 -1 c39 0 34 -24 -10 -46 -21 -10 -41 -17 -45 -16 -5 1 -8 -16 -8 -38 0
-29 -5 -43 -17 -47 -15 -6 -15 -7 3 -14 17 -7 16 -8 -6 -10 -17 -1 -13 -4 15
-8 54 -9 103 7 128 41 11 15 25 28 29 28 5 0 4 -6 -2 -12 -5 -7 -20 -26 -32
-42 -26 -34 -90 -65 -138 -67 l-35 -1 28 -10 c32 -11 35 -33 7 -48 -11 -6 -18
-16 -14 -21 5 -8 128 -70 204 -103 8 -3 3 -4 -12 -1 -15 3 -88 32 -161 65 -74
32 -156 64 -181 71 -61 15 -128 7 -205 -25 -33 -14 -66 -26 -73 -25 -7 0 -2 5
11 10 52 21 97 44 111 57 12 13 12 14 -5 9 -25 -8 -96 8 -75 16 8 3 28 8 43
12 37 8 30 25 -19 50 -43 21 -125 27 -131 8 -2 -6 11 -25 29 -42 l33 -30 -49
14 c-27 8 -68 15 -92 15 -39 0 -44 -3 -65 -40 -27 -47 -54 -63 -45 -26 3 13 9
31 12 40 5 12 2 15 -9 10 -17 -6 -107 -111 -107 -125 0 -17 19 -19 28 -3 8 14
10 12 14 -10 8 -41 -40 -73 -102 -68 -25 2 -84 -19 -115 -42 -45 -33 -61 -38
-170 -45 -92 -6 -106 -10 -160 -43 -77 -46 -97 -52 -153 -43 -35 6 -42 9 -27
15 19 7 19 7 0 18 -18 10 -16 11 15 12 26 0 46 10 79 39 44 38 44 38 149 44
118 6 134 14 134 72 0 30 3 35 17 30 29 -12 36 -10 35 8 -2 22 7 22 34 -3 26
-24 35 -25 53 -4 11 14 9 19 -16 38 -17 11 -43 33 -60 48 l-30 27 60 -24 c33
-14 78 -25 101 -25 102 0 205 143 204 285 l-1 40 -19 -24 -20 -23 0 25 c0 30
64 119 102 141 38 23 110 31 138 16 13 -7 55 -12 97 -11 40 1 82 -3 93 -9 11
-6 59 -9 108 -8 l87 3 -45 15 c-25 8 -48 18 -51 22 -3 5 -23 12 -45 15 -39 6
-64 23 -64 42 0 16 -40 33 -58 25 -9 -4 -25 -6 -34 -5 -9 1 -36 -3 -60 -10
-24 -6 -44 -11 -46 -10 -1 1 -15 -5 -32 -14 -37 -19 -45 -19 -47 3 -1 10 6 18
15 19 9 1 37 8 62 16 25 9 68 23 95 31 l50 15 -70 -4 c-108 -6 -127 -10 -165
-30 -26 -14 -31 -20 -17 -23 22 -5 22 -24 0 -20 -10 1 -24 -1 -30 -5 -7 -5
-18 -5 -23 -2 -14 9 23 42 81 75 40 22 56 25 167 26 67 0 122 -3 122 -8 0 -4
-12 -9 -27 -9 -28 -2 -28 -2 -3 -6 14 -3 46 -20 72 -39 75 -56 124 -68 247
-61 127 6 285 53 395 117 37 22 72 40 76 40 4 0 40 14 78 30 39 17 80 30 91
30 18 0 21 6 21 49 0 30 -5 51 -12 54 -10 4 -10 6 0 6 16 1 16 51 0 51 -9 0
-9 3 0 12 16 16 17 709 1 725 -8 8 -8 13 0 17 6 4 11 18 11 32 l0 24 -3700 0
-3700 0 0 -2075z m4293 988 c4 -20 2 -42 -3 -48 -7 -8 -2 -16 15 -25 28 -15
34 -50 9 -50 -10 0 -6 -8 14 -24 30 -26 97 -37 140 -22 29 10 30 -14 1 -32
-31 -20 -17 -24 27 -9 47 17 124 30 106 18 -7 -4 -10 -14 -7 -23 3 -8 2 -33
-4 -56 -5 -23 -7 -42 -6 -42 2 0 15 4 29 10 14 5 26 8 26 5 0 -2 -23 -32 -51
-65 -60 -72 -73 -121 -41 -157 11 -13 31 -23 46 -23 21 0 25 -4 23 -22 -1 -17
4 -24 21 -26 31 -5 27 -22 -5 -22 -16 0 -45 -3 -66 -6 -33 -6 -37 -9 -31 -28
6 -18 5 -19 -10 -7 -10 9 -16 9 -16 2 0 -6 -13 -24 -30 -39 -16 -16 -27 -32
-23 -36 4 -4 1 -12 -7 -17 -11 -8 -12 -12 -2 -16 6 -2 9 -9 6 -14 -3 -6 -1
-16 5 -23 8 -10 6 -17 -7 -29 -17 -15 -21 -17 -42 -17 -5 0 -9 -3 -9 -7 3 -20
-2 -34 -11 -28 -6 4 -10 -7 -10 -24 0 -21 -5 -31 -15 -31 -16 0 -16 -1 -20
-40 -1 -13 -8 -26 -14 -28 -6 -2 -8 -14 -5 -27 5 -20 2 -24 -22 -27 -19 -2
-28 -10 -30 -25 -3 -18 0 -21 14 -16 15 6 15 5 3 -10 -7 -9 -24 -17 -36 -17
-12 0 -33 -8 -46 -18 -41 -31 -92 -23 -54 8 9 7 13 20 10 28 -3 9 -1 18 5 22
13 8 2 41 -14 39 -27 -3 -35 2 -29 18 4 11 -2 8 -18 -8 -20 -20 -24 -21 -27
-7 -2 10 -9 15 -18 11 -8 -3 -14 0 -14 6 0 7 6 14 14 17 8 3 12 12 10 19 -3 8
-12 11 -20 8 -9 -3 -14 2 -14 14 0 11 -10 25 -22 31 -13 6 -17 11 -10 11 19 1
-4 41 -24 41 -19 0 -97 -39 -106 -54 -5 -7 -8 -7 -8 -1 0 6 5 16 12 23 9 9 9
12 -3 12 -12 0 -12 2 1 10 9 6 10 10 3 10 -6 0 -15 -5 -18 -11 -4 -6 -13 -8
-21 -5 -7 3 -20 -1 -28 -9 -18 -19 -60 -20 -51 -2 4 6 0 4 -7 -5 -11 -12 -27
-16 -62 -14 -48 4 -77 16 -37 16 27 0 121 41 121 52 0 5 6 8 13 8 7 0 19 9 27
19 7 11 17 18 22 15 4 -3 10 7 14 21 3 14 9 24 11 21 8 -8 35 23 29 33 -7 11
-33 16 -121 27 -46 5 -54 9 -35 14 24 6 23 7 -14 19 -51 18 -103 9 -151 -23
-50 -34 -55 -40 -28 -32 18 6 21 4 16 -16 -3 -13 -10 -28 -15 -34 -5 -7 -7
-18 -6 -25 2 -8 -5 -13 -15 -13 -10 1 -16 0 -13 -3 2 -3 0 -17 -5 -32 -12 -33
-61 -54 -138 -56 -62 -3 -83 -20 -101 -83 -19 -71 -4 -206 28 -244 8 -9 11
-22 7 -28 -4 -6 6 -15 23 -21 17 -6 33 -17 36 -25 5 -14 37 -19 49 -8 4 4 35
9 69 11 96 6 108 7 108 16 0 4 11 7 25 7 14 0 25 -4 25 -10 0 -5 4 -10 9 -10
5 0 7 10 4 23 -5 22 -5 22 10 2 8 -11 13 -23 11 -26 -2 -4 5 -5 16 -2 11 3 20
0 20 -6 0 -6 9 -11 21 -11 15 0 19 -5 15 -15 -6 -16 11 -22 79 -28 22 -2 3 -4
-43 -5 -46 -1 -81 2 -78 7 3 5 -24 12 -59 16 -56 6 -72 3 -110 -15 -44 -21
-95 -71 -95 -92 0 -6 3 -8 7 -5 3 4 12 2 20 -4 9 -8 13 -8 13 -1 0 13 41 54
48 48 2 -3 -5 -13 -15 -23 -10 -11 -43 -51 -73 -90 -30 -39 -58 -69 -62 -67
-4 3 -5 -2 -2 -11 5 -12 -11 -33 -51 -71 -96 -91 -117 -96 -212 -53 -52 24
-71 24 -106 0 -23 -15 -37 -17 -73 -10 -24 5 -86 7 -137 6 -80 -2 -96 1 -127
21 -19 12 -48 22 -65 23 -18 1 -23 3 -12 6 12 3 16 10 12 24 -5 15 -2 19 14
19 12 0 21 5 21 11 0 6 7 9 15 5 8 -3 19 2 24 12 7 13 2 25 -21 51 -29 32 -32
33 -87 28 -34 -3 -80 -16 -111 -32 -52 -26 -110 -77 -110 -96 0 -5 -4 -9 -9
-9 -5 0 -12 -6 -14 -12 -2 -7 -3 0 -1 16 2 16 15 38 29 50 14 12 25 27 25 34
0 7 3 11 8 10 11 -3 67 28 81 46 30 35 -86 -15 -132 -58 -33 -31 -47 -65 -47
-116 0 -43 16 -63 23 -28 2 13 2 -8 -1 -46 -5 -68 -5 -68 16 -57 12 7 22 14
22 17 0 3 -4 2 -10 -1 -5 -3 -7 0 -4 9 3 8 12 17 20 20 10 4 13 2 8 -7 -5 -8
-2 -8 9 2 9 7 15 16 12 20 -5 9 35 44 43 37 3 -3 11 -1 19 6 7 6 16 8 20 5 3
-4 13 -2 22 5 9 6 -21 -26 -66 -71 -52 -52 -87 -80 -94 -75 -7 4 -9 3 -6 -3
11 -18 -47 -36 -128 -39 -47 -2 -66 0 -47 4 l34 7 -60 24 c-57 22 -59 24 -44
42 9 10 29 19 45 19 38 0 63 27 79 83 15 57 4 73 -61 88 -62 14 -144 20 -150
12 -8 -11 -61 -46 -96 -63 -16 -8 -52 -30 -80 -47 -62 -41 -74 -42 -41 -2 14
17 26 37 26 44 0 7 3 22 6 32 4 11 0 9 -12 -7 -50 -67 -101 -100 -156 -100
-12 0 -78 28 -146 62 -105 52 -127 60 -143 50 -26 -16 -31 -15 -24 6 4 15 -6
24 -57 45 -89 38 -177 67 -202 67 -12 0 -27 4 -35 9 -7 5 21 6 67 4 l80 -5 4
41 c2 22 1 42 -2 43 -3 2 -16 17 -30 33 -17 21 -12 18 20 -11 72 -65 132 -110
179 -134 56 -28 116 -23 201 18 69 33 77 29 20 -10 -50 -35 -51 -48 -2 -42 43
7 92 24 92 33 0 3 12 12 28 18 54 25 187 176 137 157 -8 -4 -15 -1 -15 5 0 20
-27 12 -56 -17 -34 -34 -94 -76 -94 -67 0 10 116 168 161 218 62 71 181 157
255 183 36 14 101 27 143 31 42 3 88 12 103 19 32 16 68 61 68 83 -1 14 -2 14
-14 -1 -14 -19 -36 -24 -36 -8 0 12 90 79 108 80 6 0 12 3 12 8 0 4 17 7 37 7
28 0 39 -5 41 -18 4 -22 28 -22 36 -1 9 23 -3 32 -15 14 -9 -12 -10 -12 -5 3
3 10 6 24 6 30 0 8 4 7 12 -1 7 -7 18 -12 26 -12 7 0 34 -10 60 -22 38 -17 64
-22 130 -20 92 1 143 22 217 88 21 18 48 41 59 49 12 9 15 13 9 10 -20 -9 -15
9 7 33 11 12 20 26 20 32 0 5 10 10 22 10 11 0 36 11 55 26 24 19 33 21 33 10
0 -8 -5 -18 -11 -21 -6 -4 -8 -13 -5 -20 7 -19 -45 -76 -72 -78 -20 -1 -21 -3
-8 -12 13 -10 12 -15 -8 -38 -14 -16 -36 -29 -56 -31 -33 -4 -110 -37 -110
-47 0 -4 30 -4 68 -2 51 4 87 15 150 46 106 51 114 63 106 155 -4 44 -11 70
-18 69 -14 -3 -10 59 7 93 15 34 85 100 105 100 27 0 -19 29 -48 30 -24 1 -25
1 -5 15 48 35 68 51 91 72 14 13 28 22 32 21 4 -1 22 6 41 16 36 19 75 15 84
-8 4 -10 1 -13 -9 -9 -8 3 -14 -1 -14 -8 0 -8 -16 -29 -35 -46 -19 -18 -35
-37 -35 -43 0 -5 23 -10 53 -10 41 0 63 -7 106 -33 29 -17 62 -37 72 -43 11
-6 27 -19 36 -30 14 -15 27 -18 63 -14 30 3 44 9 42 18 -1 8 2 11 8 7 6 -3 19
-3 31 0 14 5 18 12 14 26 -5 16 -3 20 12 17 18 -3 20 3 8 33 -4 10 0 19 9 22
11 4 16 1 16 -10 0 -13 3 -13 15 -3 20 17 19 46 -2 54 -12 5 -13 10 -5 18 8 8
15 6 28 -6 19 -20 32 -13 15 8 -8 10 -9 16 -1 21 5 3 10 1 10 -4 0 -6 11 -11
25 -11 15 0 25 6 25 15 0 26 23 65 42 70 10 4 18 11 18 16 0 6 -4 7 -10 4 -5
-3 -10 -2 -10 4 0 6 17 15 38 21 29 9 37 17 38 36 1 13 -2 21 -7 18 -5 -3 -9
-12 -9 -19 0 -9 -6 -12 -17 -8 -14 5 -12 10 12 29 15 12 34 20 42 17 16 -6 17
1 1 27 -7 10 -8 23 -4 27 5 4 11 3 13 -4 2 -7 10 -10 18 -7 8 3 11 13 8 22 -4
9 -3 14 2 10 10 -10 37 11 30 23 -6 8 24 49 36 49 3 0 9 -17 12 -37z m1547
-793 c0 -17 3 -18 25 -8 14 6 25 15 25 20 0 5 5 6 11 3 6 -4 1 -18 -14 -38
-13 -18 -29 -51 -35 -74 -7 -23 -24 -51 -39 -62 -37 -30 -117 -51 -187 -50
-62 1 -63 2 -11 15 l30 7 -25 7 c-14 5 -42 8 -63 9 -22 1 -36 5 -32 11 3 5 39
9 80 8 54 -1 81 3 99 15 23 16 26 16 35 -1 9 -16 11 -16 32 4 19 19 30 54 43
129 4 25 4 25 16 25 6 0 10 -9 10 -20z m-4982 -969 c12 -10 18 -22 14 -26 -4
-5 -2 -5 4 -2 7 4 32 -2 56 -13 25 -11 76 -27 114 -35 38 -9 78 -19 89 -24 11
-5 31 -13 45 -19 14 -6 42 -16 63 -22 40 -12 41 -30 2 -30 -41 0 -37 -19 7
-30 40 -11 73 -10 126 6 21 6 22 4 17 -18 -6 -25 -5 -25 71 -31 56 -4 87 -2
112 9 43 17 52 13 17 -10 -17 -11 -44 -16 -92 -15 -54 1 -79 -4 -120 -23 -29
-14 -50 -28 -46 -32 3 -3 -9 -6 -28 -7 -98 -2 -129 1 -158 15 -17 9 -31 13
-31 8 0 -11 56 -37 98 -46 17 -4 32 -11 32 -14 0 -13 90 -7 95 6 3 10 12 7 34
-9 25 -18 37 -21 83 -15 29 4 56 7 61 6 4 0 29 11 57 25 53 27 84 32 78 13 -3
-7 -22 -17 -44 -23 -41 -10 -75 -31 -88 -52 -8 -14 19 -6 77 23 l32 16 -30
-31 c-16 -18 -59 -46 -94 -64 -90 -44 -157 -44 -226 -1 -28 18 -57 34 -65 38
-21 9 20 0 45 -9 27 -11 -16 23 -68 53 -43 25 -118 30 -139 9 -7 -7 -25 -21
-39 -30 -21 -14 -28 -15 -44 -3 -17 12 -16 13 14 19 18 4 31 13 31 22 0 8 3
14 8 13 10 -3 72 34 72 44 0 19 -73 87 -179 165 -135 101 -147 111 -104 89 37
-18 47 -20 38 -6 -3 6 -1 10 5 10 6 0 10 -6 8 -12 -2 -7 0 -13 3 -13 3 0 14
-7 24 -15 13 -11 12 -5 -5 18 -13 17 -28 32 -33 32 -5 0 -7 7 -3 15 3 8 1 15
-3 15 -5 0 -11 7 -15 15 -7 19 -4 19 22 -4z"/>
<path d="M2002 1595 c-40 -17 -98 -65 -94 -77 1 -4 -5 -8 -13 -8 -12 0 -13 -3
-3 -19 13 -22 49 -35 58 -21 3 5 12 8 20 8 86 -5 141 4 167 27 l28 24 -43 1
c-32 0 -41 3 -35 13 4 6 9 23 11 36 2 18 -1 22 -13 17 -9 -3 -13 -2 -10 4 9
15 -35 11 -73 -5z"/>
<path d="M6425 2797 c-58 -32 -167 -108 -162 -114 2 -1 19 2 38 7 18 5 74 19
124 31 49 12 96 29 103 38 11 14 12 13 6 -9 -3 -14 -7 -25 -8 -25 -55 -21 -85
-57 -73 -87 7 -20 109 -67 172 -80 54 -11 56 -10 83 18 18 20 27 40 28 64 0
19 3 49 5 65 3 26 1 30 -21 33 -64 7 -169 36 -174 48 -3 8 -20 14 -37 14 -27
0 -30 2 -19 15 19 23 1 18 -65 -18z"/>
</g>
</svg>
